<svg width="16" height="14" viewBox="0 0 16 14" fill="none" xmlns="http://www.w3.org/2000/svg">
<path opacity="0.4" d="M10 8H16V12.5C16 13.3 15.3 14 14.5 14H1.5C0.7 14 0 13.3 0 12.5V8H6V9.5C6 9.63261 6.05268 9.75979 6.14645 9.85355C6.24021 9.94732 6.36739 10 6.5 10H9.5C9.63261 10 9.75979 9.94732 9.85355 9.85355C9.94732 9.75979 10 9.63261 10 9.5V8Z" fill="#213F7D"/>
<path d="M14.5 3H12V1.5C12 0.7 11.3 0 10.5 0H5.5C4.7 0 4 0.7 4 1.5V3H1.5C0.7 3 0 3.7 0 4.5V7H16V4.5C16 3.7 15.3 3 14.5 3ZM10 3H6V2H10V3Z" fill="#213F7D"/>
</svg>
